<?xml version="1.0" encoding="UTF-8"?>
<svg width="32px" height="32px" version="1.1" viewBox="0 0 100 100" xmlns="http://www.w3.org/2000/svg">
 <g fill="#ff001b">
  <path d="m56 50c0 3.3125-2.6875 6-6 6s-6-2.6875-6-6 2.6875-6 6-6 6 2.6875 6 6"/>
  <path d="m86.918 59h-6.207c-3.0898 10.449-11.262 18.621-21.711 21.711v6.2109-0.003906c6.7578-1.6602 12.934-5.1406 17.855-10.062s8.4023-11.098 10.062-17.855z"/>
  <path d="m59 19.289c10.449 3.0898 18.621 11.262 21.711 21.711h6.2109c-1.6641-6.7617-5.1445-12.934-10.066-17.855s-11.098-8.4023-17.855-10.066z"/>
  <path d="m19.289 41c3.0898-10.449 11.262-18.621 21.711-21.711v-6.2109c-6.7578 1.6641-12.934 5.1445-17.855 10.066s-8.4023 11.094-10.066 17.855z"/>
  <path d="m19.289 59h-6.2109c1.6641 6.7578 5.1445 12.934 10.066 17.855s11.098 8.4023 17.855 10.062v-6.2109 0.003907c-10.449-3.0898-18.621-11.262-21.711-21.711z"/>
  <path d="m47.555 5h4.8945c0.85938 0 1.5547 0.85938 1.5547 1.5547v23.902c0 0.85938-0.69531 1.5547-1.5547 1.5547h-4.8945c-0.85938 0-1.5547-0.85938-1.5547-1.5547v-23.902c0-0.85938 0.69531-1.5547 1.5547-1.5547z"/>
  <path d="m69.543 46h23.902c0.85938 0 1.5547 0.69531 1.5547 1.5547v4.8906c0 0.85938-0.69531 1.5547-1.5547 1.5547h-23.902c-0.85547 0-1.5508-0.69531-1.5508-1.5547v-4.8906c0-0.85938 0.69531-1.5547 1.5508-1.5547z"/>
  <path d="m47.555 67.992h4.8906c0.41406 0 0.80859 0.16406 1.1016 0.45312 0.28906 0.29297 0.45312 0.6875 0.45312 1.0977v23.902c0 0.85938-0.69531 1.5547-1.5547 1.5547h-4.8906c-0.41406 0-0.80859-0.16406-1.1016-0.45312-0.28906-0.29297-0.45312-0.6875-0.45312-1.1016v-23.902c0-0.85547 0.69531-1.5508 1.5547-1.5508z"/>
  <path d="m6.5547 46h23.902c0.41016 0 0.80469 0.16406 1.0977 0.45312 0.28906 0.29297 0.45312 0.6875 0.45312 1.1016v4.8906c0 0.41406-0.16406 0.80859-0.45312 1.1016-0.29297 0.28906-0.6875 0.45312-1.0977 0.45312h-23.902c-0.85938 0-1.5547-0.69531-1.5547-1.5547v-4.8906c0-0.85938 0.69531-1.5547 1.5547-1.5547z"/>
 </g>
</svg>
